<svg width="30" height="30" viewBox="0 0 30 30" fill="none" xmlns="http://www.w3.org/2000/svg">
<path d="M29.3488 13.655C29.9393 13.0795 30.1478 12.2349 29.8931 11.4498C29.6378 10.6646 28.9728 10.1041 28.1558 9.98519L20.8919 8.92973C20.5825 8.88467 20.3152 8.69064 20.177 8.4101L16.9295 1.82801C16.5649 1.08852 15.8248 0.628967 15 0.628967C14.1758 0.628967 13.4357 1.08852 13.0711 1.82801L9.82298 8.4101C9.68482 8.69064 9.4169 8.88467 9.10753 8.92973L1.84361 9.98579C1.02723 10.1041 0.362232 10.6646 0.106926 11.4498C-0.14778 12.2349 0.0606702 13.0795 0.651179 13.655L5.90689 18.7779C6.13095 18.9966 6.23368 19.3114 6.18081 19.619L4.94033 26.8534C4.80096 27.6662 5.12835 28.4718 5.79575 28.9572C6.46255 29.4431 7.33059 29.5062 8.06167 29.1212L14.5579 25.7055C14.8348 25.5601 15.1652 25.5601 15.4421 25.7055L21.9389 29.1212C22.2561 29.2882 22.5997 29.3705 22.9415 29.3705C23.3855 29.3705 23.8276 29.2317 24.2048 28.9572C24.8722 28.4718 25.1996 27.6662 25.0603 26.8534L23.8192 19.6196C23.7663 19.3114 23.869 18.9972 24.0931 18.7785L29.3488 13.655ZM22.6358 19.8226L23.8762 27.0565C23.9387 27.4205 23.7976 27.7683 23.4984 27.9858C23.1986 28.2027 22.8256 28.2291 22.4982 28.0585L16.0014 24.6422C15.6884 24.4782 15.3436 24.3953 15 24.3953C14.6564 24.3953 14.3122 24.4782 13.9986 24.6428L7.503 28.0585C7.17441 28.2291 6.80136 28.2027 6.5022 27.9858C6.20304 27.7683 6.06247 27.4211 6.12435 27.0565L7.36484 19.8226C7.48438 19.1246 7.2531 18.4121 6.74609 17.9183L1.48979 12.7948C1.22487 12.5365 1.13476 12.1724 1.2495 11.821C1.36363 11.469 1.65018 11.2275 2.01602 11.174L9.27933 10.1186C9.98037 10.017 10.5865 9.5773 10.8995 8.94174L14.1476 2.35964C14.311 2.02805 14.63 1.83041 14.9994 1.83041C15.3694 1.83041 15.6878 2.02805 15.8518 2.35964L19.0999 8.94174C19.4129 9.5773 20.0184 10.017 20.7195 10.1186L27.9834 11.174C28.3492 11.2275 28.6358 11.469 28.7499 11.821C28.864 12.1724 28.7745 12.5365 28.5096 12.7948L23.2539 17.9177C22.7469 18.4121 22.5156 19.124 22.6358 19.8226Z" fill="black"/>
</svg>
